<?xml version="1.0" encoding="UTF-8" ?>
<!DOCTYPE svg PUBLIC "-//W3C//DTD SVG 1.1//EN" "http://www.w3.org/Graphics/SVG/1.1/DTD/svg11.dtd">
<svg width="630pt" height="532pt" viewBox="0 0 630 532" version="1.1" xmlns="http://www.w3.org/2000/svg">
    <g id="#f7f7f7ff">
    </g>
    <g id="#333333ff">
        <path fill="#333333" opacity="1.00"
              d=" M 72.32 5.95 C 74.52 5.69 76.74 5.58 78.96 5.55 C 233.64 5.55 388.32 5.59 543.00 5.53 C 559.05 4.95 575.23 9.46 588.69 18.20 C 608.02 31.34 620.97 54.38 619.76 78.01 C 619.76 204.33 619.75 330.66 619.76 456.99 C 620.06 473.57 612.81 489.64 602.06 502.01 C 589.17 517.00 569.54 525.20 550.05 526.43 C 392.02 526.45 233.98 526.46 75.95 526.43 C 56.47 525.21 36.82 517.04 23.93 502.05 C 14.88 491.78 8.30 479.10 6.53 465.43 C 5.09 457.69 5.63 449.81 5.56 442.00 C 5.55 320.32 5.57 198.64 5.55 76.97 C 5.83 59.07 13.12 41.40 25.38 28.39 C 37.41 15.23 54.76 7.78 72.32 5.95 M 52.77 124.50 C 52.83 230.66 52.77 336.83 52.80 443.00 C 52.86 448.96 52.33 455.00 53.65 460.87 C 55.35 467.86 60.58 473.79 67.17 476.61 C 73.06 479.36 79.72 478.29 86.00 478.46 C 236.33 478.44 386.67 478.46 537.00 478.45 C 541.98 478.41 546.98 478.67 551.96 478.33 C 562.32 477.53 571.46 468.77 572.74 458.47 C 573.47 453.34 573.19 448.16 573.20 443.00 C 573.23 336.83 573.18 230.65 573.23 124.47 C 516.49 124.23 459.74 124.47 403.00 124.35 C 286.25 124.48 169.51 124.20 52.77 124.50 Z"/>
        <path fill="#333333" opacity="1.00"
              d=" M 109.95 194.82 C 127.65 194.56 145.36 194.89 163.06 194.66 C 166.12 194.69 169.69 194.52 171.99 196.95 C 195.56 220.73 219.30 244.35 242.98 268.02 C 246.00 271.24 249.86 273.91 251.77 278.00 C 250.21 281.46 247.07 283.81 244.49 286.48 C 229.82 300.49 215.99 315.35 201.10 329.12 C 191.35 338.71 182.46 349.18 172.12 358.16 C 169.96 360.22 166.92 360.58 164.07 360.52 C 149.37 360.45 134.67 360.49 119.98 360.60 C 116.95 360.65 113.94 360.24 110.98 359.64 C 113.84 356.30 116.90 353.13 120.04 350.05 C 141.09 329.10 162.04 308.04 183.06 287.06 C 186.11 284.13 189.02 281.07 191.87 277.94 C 185.28 269.95 177.31 263.27 170.11 255.85 C 161.72 247.57 153.70 238.92 145.12 230.84 C 134.86 221.09 125.54 210.40 115.01 200.94 C 113.06 199.12 111.45 197.00 109.95 194.82 Z"/>
        <path fill="#333333" opacity="1.00"
              d=" M 308.45 313.85 C 311.61 313.36 314.81 313.42 318.00 313.41 C 356.01 313.54 394.03 313.33 432.04 313.51 C 445.32 313.56 456.38 326.80 454.48 339.85 C 453.05 347.84 447.81 355.39 440.18 358.54 C 433.52 361.49 426.06 360.34 419.01 360.52 C 383.66 360.48 348.32 360.46 312.98 360.54 C 306.36 360.54 299.61 357.89 295.28 352.78 C 289.91 346.64 287.97 337.79 290.30 329.96 C 292.45 321.61 300.09 315.31 308.45 313.85 Z"/>
    </g>
</svg>
