<?xml version="1.0" encoding="UTF-8"?>
<!DOCTYPE svg PUBLIC "-//W3C//DTD SVG 1.1//EN" "http://www.w3.org/Graphics/SVG/1.1/DTD/svg11.dtd">
<svg xmlns="http://www.w3.org/2000/svg" width="838pt" height="832pt" viewBox="0 0 838 832" version="1.1">
  <g id="#f8f8f8ff">
    <path fill="#f8f8f8" opacity="1.00" d=" M 249.99 97.92 C 252.34 94.39 256.61 91.83 260.95 92.63 C 266.27 93.52 270.15 97.62 274.00 101.05 C 348.76 167.33 422.92 234.31 498.95 299.15 C 534.83 329.73 571.19 359.77 608.46 388.65 C 619.07 396.76 627.35 408.60 629.08 422.06 C 631.56 440.14 623.74 458.42 611.28 471.31 C 587.90 495.58 563.99 519.33 540.20 543.18 C 538.96 544.14 538.86 545.72 538.65 547.16 C 544.05 548.19 549.55 547.59 555.01 547.74 C 566.67 547.85 578.36 547.52 590.02 547.89 C 593.17 547.76 592.98 551.63 590.60 552.73 C 513.31 609.43 435.92 666.01 358.61 722.67 C 356.70 723.86 353.91 726.19 351.82 724.18 C 350.03 722.59 351.34 720.03 352.29 718.35 C 376.57 677.98 400.89 637.64 425.21 597.30 C 425.86 596.31 426.14 595.24 426.04 594.08 C 424.87 592.47 422.74 592.84 421.03 592.69 C 405.01 592.74 388.98 592.67 372.97 592.74 C 371.27 592.62 369.38 592.88 367.88 591.91 C 366.51 590.60 368.09 588.85 368.59 587.53 C 382.13 564.37 395.65 541.20 409.15 518.03 C 410.24 516.64 410.51 513.81 408.04 513.99 C 395.38 514.08 382.62 513.88 370.17 511.32 C 336.05 504.83 304.86 484.48 284.99 456.03 C 279.05 447.43 274.05 438.05 271.30 427.93 C 270.38 424.67 270.35 420.59 273.05 418.14 C 275.60 415.77 279.42 416.57 282.38 417.63 C 323.81 433.16 367.74 442.72 412.06 443.52 C 413.78 443.49 417.12 443.94 416.11 441.18 C 402.37 438.94 388.50 437.39 374.87 434.52 C 353.84 430.34 332.94 424.97 313.05 416.90 C 287.17 405.94 265.15 386.56 250.00 362.98 C 232.77 336.23 224.70 303.60 228.04 271.91 C 228.49 268.03 230.72 263.66 234.91 262.93 C 238.98 262.35 242.49 264.94 245.56 267.24 C 270.34 286.31 296.21 304.00 323.31 319.60 C 359.18 340.42 397.10 357.33 434.96 374.13 C 436.96 374.93 439.69 376.96 441.06 374.07 C 405.01 356.74 369.54 337.98 336.20 315.80 C 320.98 305.96 306.31 295.26 292.45 283.58 C 269.72 264.56 252.14 239.28 243.07 211.01 C 232.68 179.68 233.38 145.19 243.42 113.87 C 245.29 108.44 246.71 102.72 249.99 97.92 Z"/>
  </g>
  <g id="#388ff7ff">
    <path fill="#388ff7" opacity="1.00" d=" M 185.00 6.01 C 217.57 3.28 250.29 4.43 282.94 4.17 C 388.64 4.18 494.33 4.15 600.03 4.19 C 624.00 4.19 648.02 4.99 671.79 8.25 C 691.27 10.93 710.62 15.91 728.24 24.81 C 744.48 32.64 759.70 42.76 772.75 55.25 C 787.78 69.39 799.89 86.49 808.91 105.01 C 818.49 123.70 823.67 144.34 826.32 165.09 C 828.27 180.65 829.56 196.30 829.67 212.00 C 830.60 219.97 830.21 227.99 830.28 236.00 C 830.29 360.32 830.28 484.63 830.29 608.95 C 830.59 617.66 829.24 626.30 829.35 635.02 C 828.15 657.93 825.74 681.00 819.10 703.07 C 811.67 725.79 799.98 747.18 784.49 765.42 C 781.78 768.08 779.27 770.91 776.93 773.90 C 768.23 781.65 759.75 789.78 749.78 795.96 C 741.75 801.59 732.90 805.80 724.19 810.25 C 721.88 810.86 719.88 812.30 717.49 812.59 L 717.54 813.47 C 713.76 814.08 710.44 816.31 706.49 816.49 L 706.56 817.53 C 704.99 817.35 703.53 817.60 702.18 818.27 C 701.13 818.57 700.10 818.89 699.08 819.22 C 697.71 819.49 696.28 819.55 695.09 820.31 C 693.46 820.54 691.83 820.74 690.29 821.32 C 689.49 821.43 688.69 821.55 687.91 821.68 C 675.50 824.26 662.84 826.25 650.20 826.75 C 649.90 826.90 649.30 827.20 649.01 827.34 C 640.39 827.70 631.74 827.19 623.19 828.45 C 530.13 828.57 437.06 828.47 344.00 828.50 C 300.30 828.44 256.59 828.61 212.89 828.42 C 204.37 826.96 195.67 827.87 187.08 827.35 C 183.68 825.61 179.66 826.91 176.02 826.39 C 174.90 825.35 173.33 825.57 171.95 825.51 C 168.47 825.68 165.16 824.37 161.70 824.27 C 153.39 822.82 145.09 821.37 136.92 819.24 C 135.85 819.00 134.82 818.60 133.79 818.25 C 132.41 817.66 130.97 817.40 129.45 817.48 L 129.34 816.58 C 127.60 816.18 125.91 815.63 124.19 815.17 C 122.41 814.23 120.49 813.62 118.48 813.42 L 118.39 812.63 C 116.08 812.14 114.04 810.95 111.81 810.24 C 98.87 804.03 86.36 796.89 75.04 788.04 C 73.58 786.45 71.92 785.08 70.04 784.05 C 66.10 779.25 60.45 776.22 56.82 771.15 C 36.89 750.16 22.63 723.91 14.90 696.05 C 8.95 672.51 6.91 648.18 6.32 623.98 C 6.02 619.99 5.52 616.01 5.70 612.00 C 5.74 481.00 5.68 349.99 5.73 218.98 C 6.85 209.69 6.13 200.30 7.19 191.01 C 8.94 164.82 12.41 138.24 22.91 113.95 C 30.89 95.74 41.33 78.45 54.87 63.82 C 69.64 47.42 87.90 34.35 107.76 24.81 C 131.66 12.68 158.51 8.07 185.00 6.01 M 249.99 97.92 C 246.71 102.72 245.29 108.44 243.42 113.87 C 233.38 145.19 232.68 179.68 243.07 211.01 C 252.14 239.28 269.72 264.56 292.45 283.58 C 306.31 295.26 320.98 305.96 336.20 315.80 C 369.54 337.98 405.01 356.74 441.06 374.07 C 439.69 376.96 436.96 374.93 434.96 374.13 C 397.10 357.33 359.18 340.42 323.31 319.60 C 296.21 304.00 270.34 286.31 245.56 267.24 C 242.49 264.94 238.98 262.35 234.91 262.93 C 230.72 263.66 228.49 268.03 228.04 271.91 C 224.70 303.60 232.77 336.23 250.00 362.98 C 265.15 386.56 287.17 405.94 313.05 416.90 C 332.94 424.97 353.84 430.34 374.87 434.52 C 388.50 437.39 402.37 438.94 416.11 441.18 C 417.12 443.94 413.78 443.49 412.06 443.52 C 367.74 442.72 323.81 433.16 282.38 417.63 C 279.42 416.57 275.60 415.77 273.05 418.14 C 270.35 420.59 270.38 424.67 271.30 427.93 C 274.05 438.05 279.05 447.43 284.99 456.03 C 304.86 484.48 336.05 504.83 370.17 511.32 C 382.62 513.88 395.38 514.08 408.04 513.99 C 410.51 513.81 410.24 516.64 409.15 518.03 C 395.65 541.20 382.13 564.37 368.59 587.53 C 368.09 588.85 366.51 590.60 367.88 591.91 C 369.38 592.88 371.27 592.62 372.97 592.74 C 388.98 592.67 405.01 592.74 421.03 592.69 C 422.74 592.84 424.87 592.47 426.04 594.08 C 426.14 595.24 425.86 596.31 425.21 597.30 C 400.89 637.64 376.57 677.98 352.29 718.35 C 351.34 720.03 350.03 722.59 351.82 724.18 C 353.91 726.19 356.70 723.86 358.61 722.67 C 435.92 666.01 513.31 609.43 590.60 552.73 C 592.98 551.63 593.17 547.76 590.02 547.89 C 578.36 547.52 566.67 547.85 555.01 547.74 C 549.55 547.59 544.05 548.19 538.65 547.16 C 538.86 545.72 538.96 544.14 540.20 543.18 C 563.99 519.33 587.90 495.58 611.28 471.31 C 623.74 458.42 631.56 440.14 629.08 422.06 C 627.35 408.60 619.07 396.76 608.46 388.65 C 571.19 359.77 534.83 329.73 498.95 299.15 C 422.92 234.31 348.76 167.33 274.00 101.05 C 270.15 97.62 266.27 93.52 260.95 92.63 C 256.61 91.83 252.34 94.39 249.99 97.92 Z"/>
  </g>
</svg>
