<?xml version="1.0" encoding="UTF-8"?>
<!DOCTYPE svg PUBLIC "-//W3C//DTD SVG 1.1//EN" "http://www.w3.org/Graphics/SVG/1.1/DTD/svg11.dtd">
<svg xmlns="http://www.w3.org/2000/svg" width="658pt" height="660pt" viewBox="0 0 658 660" version="1.1">
  <g id="#32343cff">
    <path fill="#32343c" opacity="1.00" d=" M 308.39 4.30 C 313.56 3.60 318.78 3.43 324.00 3.55 C 345.72 3.17 367.45 5.20 388.80 9.21 C 395.61 10.99 402.54 12.25 409.47 13.52 C 432.39 19.88 454.83 28.10 476.09 38.82 C 485.68 44.17 495.61 48.98 504.57 55.38 C 513.90 61.28 522.74 67.89 531.60 74.45 C 535.75 77.97 539.81 81.59 544.11 84.93 C 554.81 94.52 564.86 104.84 574.44 115.55 C 578.80 121.20 583.92 126.23 587.83 132.24 C 594.06 139.85 599.12 148.30 604.63 156.43 C 619.61 180.09 631.33 205.79 639.62 232.53 C 641.81 239.90 644.66 247.14 645.66 254.81 C 647.47 264.20 649.46 273.56 651.17 282.97 C 654.08 305.16 655.73 327.68 653.56 350.01 C 652.66 366.53 650.09 382.89 646.42 399.01 C 644.49 412.79 639.41 425.81 635.12 438.97 C 632.17 447.95 628.15 456.52 624.37 465.17 C 620.19 474.99 614.67 484.15 609.64 493.53 C 597.45 513.49 583.89 532.72 567.76 549.70 C 546.49 573.20 521.11 592.68 494.20 609.27 C 484.14 614.63 474.40 620.66 463.82 624.96 C 455.59 628.48 447.51 632.41 438.97 635.15 C 429.17 638.35 419.39 641.65 409.47 644.48 C 394.98 646.93 380.74 650.93 366.06 652.31 C 354.36 652.89 342.74 654.83 331.00 654.45 C 323.74 654.34 316.43 654.83 309.22 653.78 C 295.95 652.95 282.66 651.64 269.68 648.71 C 262.41 647.43 255.30 645.39 248.03 644.15 C 237.89 641.83 228.17 638.04 218.28 634.88 C 209.76 632.13 201.68 628.27 193.51 624.65 C 182.97 620.23 173.16 614.32 163.14 608.88 C 136.73 592.43 111.70 573.34 90.73 550.24 C 79.85 538.62 69.90 526.14 60.94 512.98 C 55.05 504.09 48.91 495.34 44.12 485.79 C 30.62 462.12 21.23 436.37 13.71 410.26 C 10.63 393.91 6.77 377.64 5.38 361.02 C 3.51 342.63 2.62 324.03 4.44 305.59 C 5.42 285.75 10.18 266.40 13.91 246.96 C 19.11 230.02 24.25 212.96 31.84 196.90 C 43.00 170.94 58.45 147.03 75.82 124.81 C 89.41 108.50 103.96 92.85 120.53 79.52 C 128.26 72.41 137.15 66.73 145.62 60.55 C 166.30 46.04 188.94 34.54 212.38 25.22 C 222.70 21.32 233.31 18.30 243.76 14.82 C 249.75 12.89 256.05 12.32 262.15 10.84 C 277.36 7.42 292.81 5.05 308.39 4.30 M 300.53 50.93 C 290.29 52.28 279.95 53.34 269.95 56.05 C 251.22 60.45 232.64 65.95 215.18 74.14 C 183.07 88.05 154.30 108.93 129.61 133.58 C 125.19 138.82 120.10 143.45 115.90 148.87 C 107.53 158.05 100.71 168.46 93.77 178.72 C 79.07 201.48 67.72 226.46 60.62 252.61 C 56.61 265.63 53.55 278.99 51.91 292.53 C 50.87 306.66 49.94 320.80 50.32 334.99 C 50.05 347.89 52.11 360.66 52.99 373.49 C 59.75 410.63 72.73 446.94 93.41 478.66 C 98.41 485.39 102.54 492.72 107.80 499.27 C 118.01 511.93 128.63 524.36 140.92 535.07 C 168.86 561.01 202.43 580.82 238.50 593.16 C 251.07 598.11 264.43 600.53 277.56 603.51 C 285.91 605.42 294.43 606.61 303.01 606.68 C 315.30 608.10 327.69 607.66 340.04 607.62 C 345.72 607.74 351.34 606.87 356.99 606.57 C 365.94 606.53 374.74 604.73 383.50 603.12 C 403.19 598.27 423.00 593.16 441.38 584.44 C 467.13 573.57 490.71 557.99 511.98 539.94 C 518.42 533.39 525.85 527.84 531.70 520.70 C 559.65 491.58 580.85 456.11 593.71 417.87 C 598.24 402.72 602.92 387.53 605.24 371.84 C 605.63 363.56 606.80 355.35 607.43 347.09 C 607.87 334.74 607.73 322.36 607.34 310.01 C 606.53 299.25 605.07 288.55 603.80 277.84 C 601.63 268.08 599.46 258.28 596.28 248.79 C 585.26 210.23 564.79 174.66 538.48 144.51 C 532.48 138.50 527.31 131.67 520.70 126.30 C 513.99 119.99 507.39 113.51 499.84 108.18 C 477.03 90.66 451.67 76.34 424.55 66.67 C 416.90 64.30 409.39 61.52 401.67 59.38 C 391.16 56.92 380.76 53.68 369.96 52.65 C 359.96 52.19 350.06 50.24 340.02 50.38 C 326.86 50.33 313.66 50.08 300.53 50.93 Z"/>
    <path fill="#32343c" opacity="1.00" d=" M 321.50 64.50 C 326.29 63.11 331.70 63.09 336.48 64.51 C 338.05 68.10 337.10 72.20 337.34 76.00 C 337.01 87.33 337.89 98.71 336.90 110.00 C 331.68 110.78 326.31 110.79 321.10 109.99 C 320.10 98.70 320.97 87.32 320.67 76.00 C 320.88 72.19 319.98 68.11 321.50 64.50 Z"/>
    <path fill="#32343c" opacity="1.00" d=" M 212.30 120.20 C 218.74 119.21 225.41 119.37 231.86 120.16 C 234.93 120.25 236.02 123.45 237.44 125.63 C 246.41 141.88 256.20 157.67 265.23 173.88 C 287.86 213.23 310.70 252.44 333.30 291.81 C 335.14 294.75 336.45 298.27 339.32 300.40 C 342.22 300.13 344.77 298.33 347.48 297.32 C 391.55 276.72 435.71 256.33 479.75 235.67 C 482.39 234.14 484.80 236.69 487.03 237.85 C 492.93 242.12 501.16 245.35 503.13 253.08 C 504.10 259.61 503.04 266.23 501.89 272.67 C 501.45 274.41 501.28 276.73 499.26 277.37 C 458.08 296.50 416.93 315.69 375.80 334.91 C 369.13 338.71 361.37 340.58 355.20 345.18 C 350.38 351.38 344.04 356.78 336.21 358.59 C 320.85 362.92 303.25 352.58 299.59 337.04 C 297.97 332.40 299.08 327.38 298.03 322.71 C 266.23 267.61 234.32 212.52 202.55 157.41 C 200.18 152.81 196.65 148.82 194.89 143.93 C 195.84 139.00 199.00 134.79 201.35 130.42 C 204.02 126.19 206.73 120.82 212.30 120.20 Z"/>
    <path fill="#32343c" opacity="1.00" d=" M 64.38 321.36 C 69.48 320.04 74.80 320.88 80.00 320.69 C 89.99 320.94 100.04 320.14 109.99 321.10 C 110.79 326.31 110.77 331.68 110.00 336.90 C 96.69 337.89 83.30 337.00 69.96 337.36 C 67.86 337.18 64.19 337.86 63.96 334.85 C 63.28 330.39 63.35 325.77 64.38 321.36 Z"/>
    <path fill="#32343c" opacity="1.00" d=" M 548.00 321.10 C 559.62 320.11 571.33 320.98 582.99 320.66 C 586.47 320.85 590.22 320.03 593.50 321.51 C 594.90 326.30 594.89 331.69 593.50 336.48 C 589.89 338.03 585.81 337.14 582.00 337.34 C 570.67 337.01 559.29 337.88 548.00 336.90 C 547.23 331.68 547.21 326.31 548.00 321.10 Z"/>
    <path fill="#32343c" opacity="1.00" d=" M 321.24 547.42 C 326.42 547.41 331.60 547.42 336.78 547.41 C 337.92 554.88 337.06 562.47 337.32 570.00 C 337.06 577.95 337.89 585.95 336.85 593.85 C 331.65 594.65 326.33 594.65 321.14 593.85 C 320.10 584.95 320.96 575.94 320.68 567.00 C 320.87 560.47 320.13 553.89 321.24 547.42 Z"/>
  </g>
</svg>
